<?xml version="1.0" encoding="UTF-8" standalone="no"?>
<svg xmlns="http://www.w3.org/2000/svg" version="1.1" id="Capa_1" x="0px" y="0px" viewBox="0 0 525.153 525.153" style="enable-background:new 0 0 525.153 525.153;" xml:space="preserve">
<circle fill="#f4f8fe" cx="262.57651" cy="262.57651" r="250" />
<path fill="#2a7ae2" d="M 262.57651,12.576508 A 250,250 0 0 0 44.896379,139.92151 725.14631,562.28138 0 0 1 262.26551,358.46936 725.14631,562.28138 0 0 1 480.24109,140.22319 250,250 0 0 0 262.57651,12.576508 Z m 0,6.369428 A 127.38853,127.38853 0 0 1 389.96504,146.33447 127.38853,127.38853 0 0 1 262.57651,273.72301 127.38853,127.38853 0 0 1 135.18798,146.33447 127.38853,127.38853 0 0 1 262.57651,18.945936 Z M 21.847637,196.11428 a 250,250 0 0 0 -9.271131,66.46223 250,250 0 0 0 250.000004,250 250,250 0 0 0 250,-250 250,250 0 0 0 -9.00054,-66.38758 A 673.64128,562.28138 0 0 0 262.28727,438.0872 673.64128,562.28138 0 0 0 21.847637,196.11428 Z" />
</svg>
